<svg width="17" height="16" viewBox="0 0 17 16" fill="none" xmlns="http://www.w3.org/2000/svg">
<path d="M13.974 6.53063L8.97402 11.5306C8.90434 11.6005 8.82155 11.656 8.73038 11.6939C8.63922 11.7317 8.54148 11.7512 8.44277 11.7512C8.34406 11.7512 8.24632 11.7317 8.15515 11.6939C8.06399 11.656 7.9812 11.6005 7.91152 11.5306L2.91152 6.53063C2.77062 6.38973 2.69147 6.19864 2.69147 5.99938C2.69147 5.80012 2.77062 5.60902 2.91152 5.46813C3.05241 5.32723 3.24351 5.24808 3.44277 5.24808C3.64203 5.24808 3.83312 5.32723 3.97402 5.46813L8.44339 9.9375L12.9128 5.4675C13.0537 5.32661 13.2448 5.24745 13.444 5.24745C13.6433 5.24745 13.8344 5.32661 13.9753 5.4675C14.1162 5.6084 14.1953 5.7995 14.1953 5.99875C14.1953 6.19801 14.1162 6.38911 13.9753 6.53L13.974 6.53063Z" fill="black"/>
</svg>
