<svg width="25" height="24" viewBox="0 0 25 24" fill="none" xmlns="http://www.w3.org/2000/svg">
<path d="M22.2393 20.2041L17.7871 15.75C19.122 14.0104 19.7452 11.8282 19.5304 9.64607C19.3155 7.4639 18.2786 5.44516 16.6301 3.99937C14.9815 2.55357 12.8448 1.78899 10.6532 1.86071C8.46165 1.93244 6.37943 2.8351 4.82894 4.38559C3.27845 5.93608 2.37579 8.0183 2.30406 10.2098C2.23234 12.4014 2.99692 14.5382 4.44272 16.1867C5.88851 17.8353 7.90725 18.8722 10.0894 19.087C12.2716 19.3019 14.4538 18.6787 16.1934 17.3438L20.6493 21.8006C20.7539 21.9053 20.8782 21.9883 21.0149 22.0449C21.1516 22.1016 21.2982 22.1307 21.4462 22.1307C21.5942 22.1307 21.7407 22.1016 21.8774 22.0449C22.0142 21.9883 22.1384 21.9053 22.243 21.8006C22.3477 21.696 22.4307 21.5717 22.4873 21.435C22.544 21.2983 22.5731 21.1517 22.5731 21.0037C22.5731 20.8558 22.544 20.7092 22.4873 20.5725C22.4307 20.4358 22.3477 20.3115 22.243 20.2069L22.2393 20.2041ZM4.56835 10.5C4.56835 9.23915 4.94224 8.0066 5.64273 6.95824C6.34323 5.90988 7.33887 5.09278 8.50375 4.61027C9.66863 4.12776 10.9504 4.00151 12.1871 4.2475C13.4237 4.49348 14.5596 5.10064 15.4512 5.9922C16.3427 6.88376 16.9499 8.01967 17.1959 9.2563C17.4418 10.4929 17.3156 11.7747 16.8331 12.9396C16.3506 14.1045 15.5335 15.1001 14.4851 15.8006C13.4367 16.5011 12.2042 16.875 10.9434 16.875C9.25313 16.8733 7.63263 16.2011 6.43747 15.0059C5.2423 13.8107 4.57009 12.1902 4.56835 10.5Z" fill="black" fill-opacity="0.4"/>
</svg>
