<svg width="23" height="15" viewBox="0 0 23 15" fill="none" xmlns="http://www.w3.org/2000/svg">
<path d="M19.6673 6.43436L17.8809 5.70356C16.6576 5.21076 15.7394 4.89717 15.7394 4.02917C15.7394 3.21998 16.4357 2.76078 17.5286 2.76078C18.6216 2.76078 19.5148 3.15278 20.4385 3.86957L22.0391 1.85359C20.8324 0.641195 19.1431 0 17.5286 0C14.6104 0 12.5355 1.87319 12.5355 4.21677C12.5355 6.27196 13.9114 7.47595 15.3649 8.07234L17.1874 8.85634C17.806 9.12234 18.7519 9.35754 19.0904 10.0155C19.5065 10.8219 18.935 11.7543 18.0834 11.8831C17.6118 11.9531 17.1347 11.8271 16.6826 11.6843C14.6104 11.0263 12.6825 9.98193 10.8545 8.80874C10.6575 8.68274 10.0611 8.22074 9.37597 7.73355C10.0528 6.99435 10.4578 5.98356 10.4578 4.66477C10.4578 1.30199 8.01951 0.257598 5.0486 0.257598H0V14.4059H3.16786V9.31274H5.04583C5.43141 9.31274 5.80589 9.28754 6.16928 9.23994C7.44252 10.0211 8.99317 11.1187 9.22618 11.2699C11.6257 12.8211 14.2526 14.2603 17.1569 14.4283C18.1389 14.4843 19.1458 14.3891 20.0502 14.0027C21.5842 13.3447 22.4441 11.9447 22.4441 10.2787C22.4441 8.27954 21.3761 7.12875 19.6646 6.42876L19.6673 6.43436ZM3.16786 2.79998H4.78785C6.455 2.79998 7.35098 3.26758 7.35098 4.66757C7.35098 6.06756 6.455 6.77875 4.78785 6.77875H3.16786V2.79998Z" fill="#545254"/>
</svg>
