<svg width="301" height="40" viewBox="0 0 301 40" fill="none" xmlns="http://www.w3.org/2000/svg">
<path d="M247.229 30.6585C239.926 30.6585 232.616 30.689 225.313 30.6279C223.94 30.6157 222.501 30.4388 221.219 29.9873C218.156 28.8952 216.448 26.5585 216.296 23.3858C216.106 19.4323 216.198 15.4726 216.167 11.5129C216.167 11.0126 216.21 10.5123 216.18 10.012C216.143 9.3592 216.491 9.07244 217.083 9.06024C218.297 9.03583 219.517 9.04804 220.737 9.05414C221.366 9.05414 221.652 9.3897 221.646 9.99982C221.64 10.6038 221.64 11.2018 221.64 11.8058C221.64 14.8869 221.628 17.9741 221.64 21.0552C221.652 24.24 223.379 25.9727 226.607 26.0521C227.748 26.0826 228.888 26.0704 230.029 26.0643C231.073 26.0643 231.634 25.5212 231.64 24.4963C231.652 19.7861 231.658 15.0699 231.658 10.3598C231.658 9.24938 231.854 9.04193 232.976 9.04804C233.965 9.04804 234.953 9.04804 235.941 9.04804C236.924 9.04804 237.113 9.23107 237.113 10.1707C237.113 14.9357 237.119 19.6946 237.095 24.4596C237.095 25.0698 237.247 25.2894 237.894 25.2894C241.725 25.2589 245.557 25.2528 249.382 25.2833C250.066 25.2833 250.224 25.0759 250.224 24.4291C250.194 16.583 250.206 8.73688 250.176 0.896846C250.176 0.231816 250.383 -2.89548e-05 251.036 0.0121734C252.28 0.0365782 253.519 0.030477 254.764 0.0121734C255.416 -2.89548e-05 255.66 0.280626 255.648 0.921251C255.618 3.2275 255.63 5.53375 255.618 7.84C255.618 9.02363 255.648 9.04804 256.844 9.06634C259.254 9.09685 261.67 9.01143 264.062 9.22497C268.021 9.57274 270.95 12.7332 271.029 16.6867C271.115 21.0735 271.048 25.4602 271.072 29.847C271.072 30.7561 270.48 30.689 269.895 30.689C264.922 30.689 259.95 30.6768 254.983 30.6707C252.396 30.6707 249.809 30.6707 247.223 30.6707V30.6829L247.229 30.6585ZM255.642 19.78H255.63C255.63 21.3846 255.642 22.9893 255.624 24.5878C255.624 25.021 255.667 25.2833 256.222 25.2772C259.114 25.2528 262.006 25.2528 264.892 25.2772C265.471 25.2772 265.618 25.0637 265.612 24.5207C265.581 22.3913 265.599 20.262 265.593 18.1327C265.593 15.9241 264.324 14.2035 262.109 13.8558C260.474 13.5995 258.778 13.6849 257.113 13.6727C255.99 13.6605 255.636 14.0632 255.636 15.1919C255.636 16.7172 255.636 18.2486 255.636 19.7739L255.642 19.78Z" fill="#FEFEFD"/>
<path d="M17.5554 16.8026C17.3784 17.1504 17.1527 17.486 17.0368 17.852C15.7982 21.6897 14.5658 25.5273 13.3516 29.365C13.1625 29.9629 12.8086 30.2191 12.1863 30.2069C10.9417 30.1886 9.70313 30.1825 8.45848 30.2069C7.83006 30.2191 7.48229 29.9568 7.27485 29.3833C4.90149 22.9221 2.50982 16.4671 0.130359 10.0059C-0.144195 9.26765 -0.01607 9.06631 0.813692 9.0358C2.23527 8.98699 3.65075 9.0053 5.07232 8.96869C5.73735 8.95039 5.84717 9.46289 5.9936 9.88997C6.64033 11.8118 7.25655 13.7459 7.89107 15.6678C8.5561 17.6873 9.23944 19.7068 9.91057 21.7202C9.97158 21.9093 10.0143 22.129 10.1363 22.2754C10.301 22.4645 10.5268 22.6903 10.7403 22.7086C10.8868 22.7208 11.143 22.434 11.2101 22.2388C11.7348 20.7013 12.2351 19.1516 12.7293 17.6019C13.5652 14.9784 14.401 12.3549 15.2247 9.72524C15.3894 9.18833 15.7006 8.94428 16.268 8.96259C17.1832 8.98699 18.0984 9.0236 19.0074 8.96259C19.7335 8.91378 20.0507 9.20053 20.2521 9.85336C21.2222 12.9589 22.2289 16.0522 23.2234 19.1516C23.5162 20.0546 23.7725 20.9758 24.1141 21.8605C24.2423 22.19 24.5595 22.4523 24.7914 22.7452C25.0293 22.4584 25.371 22.2083 25.4869 21.8788C26.64 18.5171 27.7504 15.137 28.8731 11.763C29.111 11.0492 29.3673 10.3415 29.5808 9.62152C29.715 9.16393 29.9835 8.96869 30.4594 8.97479C31.8565 8.98699 33.2476 8.96259 34.6448 9.0053C35.5173 9.0297 35.6698 9.29205 35.3647 10.1035C32.9792 16.5098 30.5753 22.9099 28.2019 29.3223C27.9518 29.9995 27.5735 30.2496 26.8475 30.2191C25.6821 30.1642 24.5168 30.1825 23.3454 30.2191C22.6804 30.2374 22.3387 29.9812 22.1435 29.3467C21.0086 25.7409 19.8494 22.1412 18.6719 18.5537C18.4705 17.9374 18.1655 17.3578 17.9092 16.7599C17.7872 16.7782 17.6713 16.7965 17.5493 16.8087L17.5554 16.8026Z" fill="#FEFEFD"/>
<path d="M300.114 24.3864C300.114 29.0721 300.114 33.7579 300.114 38.4436C300.114 39.6394 300.028 39.7187 298.814 39.7126C297.698 39.7126 296.581 39.6943 295.465 39.7187C294.855 39.7309 294.611 39.493 294.611 38.889C294.623 36.5339 294.592 34.1788 294.598 31.8238C294.598 30.7439 294.556 30.6829 293.451 30.6646C291.121 30.634 288.778 30.7256 286.459 30.5364C282.097 30.1704 279.193 27.0099 279.138 22.6842C279.089 18.45 279.126 14.2157 279.107 9.98152C279.107 9.31039 279.37 9.04803 280.059 9.04803C286.35 9.06634 292.634 9.06024 298.924 9.06024C299.919 9.06024 300.089 9.20667 300.089 10.1768C300.096 14.9113 300.089 19.6458 300.089 24.3803C300.089 24.3803 300.096 24.3803 300.102 24.3803L300.114 24.3864ZM294.623 19.8166C294.623 19.8166 294.629 19.8166 294.635 19.8166C294.635 18.2425 294.611 16.6623 294.647 15.0882C294.659 14.5696 294.464 14.4354 293.988 14.4354C291.072 14.4354 288.162 14.4354 285.245 14.4171C284.751 14.4171 284.586 14.594 284.592 15.0821C284.617 17.2846 284.592 19.4872 284.611 21.6897C284.635 23.7946 286.038 25.5579 288.155 25.8568C289.748 26.0765 291.383 26.0276 293 26.0459C294.208 26.0643 294.617 25.6128 294.617 24.3925C294.617 22.8672 294.617 21.3358 294.617 19.8105L294.623 19.8166Z" fill="#FEFEFD"/>
<path d="M67.9937 19.6214C67.9937 22.8062 67.9937 25.9849 67.9937 29.1698C67.9937 30.1032 67.8777 30.207 66.9503 30.207C65.8338 30.207 64.7173 30.1948 63.6008 30.207C62.9541 30.207 62.6246 29.9995 62.6612 29.2796C62.6795 28.8769 62.4904 28.4559 62.3928 28.0471C62.045 28.2607 61.6545 28.4315 61.3495 28.6939C58.7076 30.9269 54.3636 31.2198 51.4777 29.3406C47.756 26.9184 47.7072 21.4212 51.3923 18.9442C53.1983 17.73 55.23 17.2602 57.3715 17.2663C58.787 17.2663 60.2024 17.4189 61.6179 17.547C62.4416 17.6202 62.5575 17.5653 62.5636 16.7477C62.5697 15.8936 62.5331 15.0394 62.5758 14.1913C62.6124 13.4836 62.3623 13.2212 61.6179 13.2273C58.1707 13.2579 54.7175 13.2395 51.2703 13.2395C50.05 13.2395 50.05 13.2395 50.0562 12.0254C50.0562 11.2994 50.0867 10.5672 50.0439 9.84729C50.0073 9.18836 50.2697 8.96261 50.9286 8.96872C56.0048 8.98092 61.0749 8.96872 66.1511 8.96872C66.4317 8.96872 66.7063 8.96872 66.987 8.96872C67.9143 8.95651 68.0059 9.04193 68.012 9.99982C68.012 13.209 68.012 16.4183 68.012 19.6275L67.9937 19.6214ZM58.5917 20.8416C57.945 20.9759 57.0481 21.0491 56.2367 21.3541C54.4368 22.0314 53.784 23.8556 54.7358 25.387C55.4862 26.589 56.7065 26.8269 57.9938 26.7171C60.4709 26.5035 62.3256 24.5206 62.5331 22.0253C62.5758 21.4884 62.2951 21.287 61.8559 21.2321C60.8553 21.0979 59.8486 20.9881 58.5917 20.8416Z" fill="#FEFEFD"/>
<path d="M127.981 19.8358C127.981 23.0145 127.981 26.1994 127.981 29.3781C127.981 30.2627 127.859 30.3787 126.98 30.3787C125.888 30.3787 124.802 30.3787 123.71 30.3787C122.837 30.3787 122.679 30.22 122.672 29.3842C122.672 29.3354 122.685 29.2805 122.672 29.2316C122.581 28.8839 122.483 28.5422 122.386 28.2005C122.093 28.3653 121.763 28.4812 121.519 28.6947C118.878 31.0681 114.448 31.4403 111.477 29.5245C107.462 26.9376 107.792 20.9889 112.069 18.6888C113.832 17.7431 115.735 17.3892 117.712 17.4258C119.03 17.4502 120.348 17.554 121.654 17.7187C122.367 17.8102 122.563 17.5784 122.544 16.9316C122.514 16.0287 122.508 15.1257 122.544 14.2288C122.569 13.6004 122.313 13.4052 121.696 13.4113C118.225 13.4296 114.747 13.4174 111.275 13.4113C110.031 13.4113 110.019 13.393 110.013 12.1422C110.013 11.4162 110.031 10.6901 110 9.96409C109.982 9.39667 110.196 9.13432 110.793 9.15263C111.654 9.17703 112.52 9.15263 113.38 9.15263C117.895 9.15263 122.404 9.15263 126.919 9.15263C127.932 9.15263 127.987 9.21364 127.987 10.2203C127.987 13.4296 127.987 16.6327 127.987 19.8419L127.981 19.8358ZM117.639 26.9193C120.293 26.8522 122.227 24.8937 122.477 22.1665C122.502 21.9346 122.215 21.4892 122.026 21.4526C120.183 21.1537 118.316 20.8059 116.474 21.4099C115.467 21.7394 114.68 22.3556 114.418 23.4294C113.936 25.4123 115.351 26.9315 117.639 26.9132V26.9193Z" fill="#FEFEFD"/>
<path d="M141.049 19.414C141.049 16.2291 141.049 13.0504 141.049 9.8656C141.049 8.74908 141.202 8.58435 142.3 8.58435C145.955 8.58435 149.603 8.57825 153.258 8.59045C155.784 8.59655 158.072 9.24938 159.853 11.1407C161.171 12.5379 161.879 14.2218 161.903 16.1071C161.958 20.4634 161.909 24.8257 161.94 29.1881C161.94 29.8714 161.665 30.1765 161.031 30.1887C159.841 30.207 158.645 30.2314 157.455 30.1887C156.632 30.1643 156.461 29.908 156.461 28.9257C156.461 25.265 156.369 21.6043 156.491 17.9497C156.595 14.8686 154.161 13.203 151.848 13.2213C150.659 13.2274 149.463 13.1968 148.273 13.203C146.98 13.2152 146.498 13.6971 146.492 14.9906C146.479 16.9979 146.492 18.9991 146.492 21.0064C146.492 23.6848 146.51 26.3693 146.516 29.0477C146.516 29.9202 146.26 30.2009 145.412 30.207C144.344 30.2131 143.282 30.207 142.215 30.2009C141.257 30.1887 141.062 29.9934 141.055 29.0355C141.049 25.8263 141.055 22.6232 141.055 19.414H141.049Z" fill="#FEFEFD"/>
<path d="M85.5408 21.7446C85.5408 19.237 85.5225 16.7355 85.553 14.2279C85.5591 13.5995 85.3089 13.3738 84.7049 13.386C83.7898 13.4043 82.8807 13.386 81.9655 13.3982C81.3188 13.4043 80.9832 13.1846 81.032 12.4647C81.0869 11.6166 81.0869 10.7625 81.032 9.9144C80.9893 9.24938 81.2761 8.98702 81.9045 8.98702C82.7159 8.98702 83.5274 8.98702 84.3389 8.98092C85.5103 8.96872 85.5408 8.93211 85.5408 7.80339C85.5408 7.37631 85.5347 6.94923 85.5408 6.52824C85.553 6.01574 85.8031 5.74119 86.3462 5.74729C87.664 5.75339 88.9819 5.75949 90.2997 5.75949C90.8183 5.75949 91.0197 6.02185 91.0075 6.51604C90.9953 7.08955 91.0075 7.66917 91.0075 8.24268C91.0075 8.76738 91.2576 9.00533 91.8006 8.99923C92.789 8.98092 93.7774 8.99923 94.7658 8.98702C95.3332 8.97482 95.6017 9.20057 95.5895 9.78018C95.5711 10.732 95.5772 11.6837 95.5895 12.6355C95.6017 13.1846 95.3332 13.4043 94.8024 13.3982C93.8872 13.3921 92.9781 13.3982 92.063 13.3982C91.0929 13.3982 90.9953 13.4958 90.9953 14.4781C90.9953 17.3579 90.9953 20.2376 90.9953 23.1235C90.9953 25.1552 91.0075 27.1808 91.0014 29.2125C91.0014 30.0544 90.8305 30.2131 89.9703 30.2131C88.8293 30.2131 87.6884 30.2131 86.5475 30.2131C85.7116 30.2131 85.5164 30.0178 85.5164 29.1942C85.5164 26.711 85.5164 24.2339 85.5164 21.7507C85.5164 21.7507 85.5286 21.7507 85.5347 21.7507L85.5408 21.7446Z" fill="#FEFEFD"/>
<path d="M188.615 15.0394C190.903 15.0455 192.751 16.8881 192.745 19.1577C192.739 21.403 190.842 23.2882 188.596 23.2821C186.229 23.276 184.35 21.4335 184.344 19.0967C184.332 16.8454 186.247 15.0272 188.621 15.0394H188.615Z" fill="#FEFEFD"/>
<path d="M226.698 0C228.327 0 229.425 1.15313 229.438 2.86146C229.45 4.5942 228.327 5.75952 226.643 5.75952C225.039 5.75952 223.904 4.57589 223.892 2.88586C223.886 1.17753 225.026 0 226.698 0Z" fill="#FEFEFD"/>
</svg>
